<mxfile host="app.diagrams.net" agent="Mozilla/5.0 (X11; Linux x86_64; rv:109.0) Gecko/20100101 Firefox/119.0" version="26.1.1">
  <diagram name="PÃ¡gina-1" id="mupiq1KDh43cNJ2vpURQ">
    <mxGraphModel grid="1" page="1" gridSize="10" guides="1" tooltips="1" connect="1" arrows="1" fold="1" pageScale="1" pageWidth="827" pageHeight="1169" math="0" shadow="0">
      <root>
        <mxCell id="0" />
        <mxCell id="1" parent="0" />
        <mxCell id="YE42am6H5YGw8K3WRFh9-3" value="" style="edgeStyle=orthogonalEdgeStyle;rounded=0;orthogonalLoop=1;jettySize=auto;html=1;fillColor=#fff2cc;strokeColor=#d6b656;" edge="1" parent="1" source="YE42am6H5YGw8K3WRFh9-1" target="YE42am6H5YGw8K3WRFh9-2">
          <mxGeometry relative="1" as="geometry" />
        </mxCell>
        <mxCell id="YE42am6H5YGw8K3WRFh9-1" value="inicio" style="ellipse;whiteSpace=wrap;html=1;fillColor=#fff2cc;strokeColor=#d6b656;" vertex="1" parent="1">
          <mxGeometry x="354" y="70" width="120" height="80" as="geometry" />
        </mxCell>
        <mxCell id="YE42am6H5YGw8K3WRFh9-5" value="" style="edgeStyle=orthogonalEdgeStyle;rounded=0;orthogonalLoop=1;jettySize=auto;html=1;fillColor=#fff2cc;strokeColor=#d6b656;" edge="1" parent="1" source="YE42am6H5YGw8K3WRFh9-2" target="YE42am6H5YGw8K3WRFh9-4">
          <mxGeometry relative="1" as="geometry" />
        </mxCell>
        <mxCell id="YE42am6H5YGw8K3WRFh9-2" value="num1,num2" style="shape=parallelogram;perimeter=parallelogramPerimeter;whiteSpace=wrap;html=1;fixedSize=1;fillColor=#fff2cc;strokeColor=#d6b656;" vertex="1" parent="1">
          <mxGeometry x="354" y="240" width="120" height="60" as="geometry" />
        </mxCell>
        <mxCell id="YE42am6H5YGw8K3WRFh9-7" value="" style="edgeStyle=orthogonalEdgeStyle;rounded=0;orthogonalLoop=1;jettySize=auto;html=1;fillColor=#fff2cc;strokeColor=#d6b656;" edge="1" parent="1" source="YE42am6H5YGw8K3WRFh9-4" target="YE42am6H5YGw8K3WRFh9-6">
          <mxGeometry relative="1" as="geometry" />
        </mxCell>
        <mxCell id="YE42am6H5YGw8K3WRFh9-4" value="media=(num1+num2)/2" style="whiteSpace=wrap;html=1;fillColor=#fff2cc;strokeColor=#d6b656;" vertex="1" parent="1">
          <mxGeometry x="354" y="380" width="120" height="60" as="geometry" />
        </mxCell>
        <mxCell id="YE42am6H5YGw8K3WRFh9-9" value="" style="edgeStyle=orthogonalEdgeStyle;rounded=0;orthogonalLoop=1;jettySize=auto;html=1;fillColor=#fff2cc;strokeColor=#d6b656;" edge="1" parent="1" source="YE42am6H5YGw8K3WRFh9-6" target="YE42am6H5YGw8K3WRFh9-8">
          <mxGeometry relative="1" as="geometry" />
        </mxCell>
        <mxCell id="YE42am6H5YGw8K3WRFh9-6" value="media" style="shape=document;whiteSpace=wrap;html=1;boundedLbl=1;fillColor=#fff2cc;strokeColor=#d6b656;" vertex="1" parent="1">
          <mxGeometry x="354" y="510" width="120" height="80" as="geometry" />
        </mxCell>
        <mxCell id="YE42am6H5YGw8K3WRFh9-8" value="fim" style="ellipse;whiteSpace=wrap;html=1;fillColor=#fff2cc;strokeColor=#d6b656;" vertex="1" parent="1">
          <mxGeometry x="356" y="670" width="116" height="80" as="geometry" />
        </mxCell>
      </root>
    </mxGraphModel>
  </diagram>
</mxfile>
